<svg id="visual" viewBox="0 0 900 600" width="900" height="600" xmlns="http://www.w3.org/2000/svg" xmlns:xlink="http://www.w3.org/1999/xlink" version="1.1"><path d="M0 171L21.5 176.8C43 182.7 86 194.3 128.8 181.3C171.7 168.3 214.3 130.7 257.2 142.2C300 153.7 343 214.3 385.8 231.3C428.7 248.3 471.3 221.7 514.2 191.3C557 161 600 127 642.8 111.5C685.7 96 728.3 99 771.2 106C814 113 857 124 878.5 129.5L900 135L900 601L878.5 601C857 601 814 601 771.2 601C728.3 601 685.7 601 642.8 601C600 601 557 601 514.2 601C471.3 601 428.7 601 385.8 601C343 601 300 601 257.2 601C214.3 601 171.7 601 128.8 601C86 601 43 601 21.5 601L0 601Z" fill="#e9c287"></path><path d="M0 327L21.5 331.5C43 336 86 345 128.8 348.3C171.7 351.7 214.3 349.3 257.2 345.8C300 342.3 343 337.7 385.8 326.2C428.7 314.7 471.3 296.3 514.2 277.7C557 259 600 240 642.8 224.8C685.7 209.7 728.3 198.3 771.2 202.7C814 207 857 227 878.5 237L900 247L900 601L878.5 601C857 601 814 601 771.2 601C728.3 601 685.7 601 642.8 601C600 601 557 601 514.2 601C471.3 601 428.7 601 385.8 601C343 601 300 601 257.2 601C214.3 601 171.7 601 128.8 601C86 601 43 601 21.5 601L0 601Z" fill="#ca8081"></path><path d="M0 311L21.5 319.2C43 327.3 86 343.7 128.8 366.8C171.7 390 214.3 420 257.2 412C300 404 343 358 385.8 354.5C428.7 351 471.3 390 514.2 395.2C557 400.3 600 371.7 642.8 353.3C685.7 335 728.3 327 771.2 337.3C814 347.7 857 376.3 878.5 390.7L900 405L900 601L878.5 601C857 601 814 601 771.2 601C728.3 601 685.7 601 642.8 601C600 601 557 601 514.2 601C471.3 601 428.7 601 385.8 601C343 601 300 601 257.2 601C214.3 601 171.7 601 128.8 601C86 601 43 601 21.5 601L0 601Z" fill="#7b587d"></path><path d="M0 427L21.5 437.7C43 448.3 86 469.7 128.8 477.8C171.7 486 214.3 481 257.2 476.3C300 471.7 343 467.3 385.8 458.5C428.7 449.7 471.3 436.3 514.2 432.5C557 428.7 600 434.3 642.8 447.8C685.7 461.3 728.3 482.7 771.2 484.7C814 486.7 857 469.3 878.5 460.7L900 452L900 601L878.5 601C857 601 814 601 771.2 601C728.3 601 685.7 601 642.8 601C600 601 557 601 514.2 601C471.3 601 428.7 601 385.8 601C343 601 300 601 257.2 601C214.3 601 171.7 601 128.8 601C86 601 43 601 21.5 601L0 601Z" fill="#153957"></path></svg>