<svg id="visual" viewBox="0 0 900 450" width="900" height="450" xmlns="http://www.w3.org/2000/svg" xmlns:xlink="http://www.w3.org/1999/xlink" version="1.1"><path d="M0 84L30 85.8C60 87.7 120 91.3 180 109.3C240 127.3 300 159.7 360 187.3C420 215 480 238 540 231.8C600 225.7 660 190.3 720 184C780 177.7 840 200.3 870 211.7L900 223L900 451L870 451C840 451 780 451 720 451C660 451 600 451 540 451C480 451 420 451 360 451C300 451 240 451 180 451C120 451 60 451 30 451L0 451Z" fill="#ffdca7"></path><path d="M0 237L30 226C60 215 120 193 180 198.5C240 204 300 237 360 257.8C420 278.7 480 287.3 540 265.3C600 243.3 660 190.7 720 179C780 167.3 840 196.7 870 211.3L900 226L900 451L870 451C840 451 780 451 720 451C660 451 600 451 540 451C480 451 420 451 360 451C300 451 240 451 180 451C120 451 60 451 30 451L0 451Z" fill="#ffc9ba"></path><path d="M0 207L30 213.2C60 219.3 120 231.7 180 251C240 270.3 300 296.7 360 298.7C420 300.7 480 278.3 540 260C600 241.7 660 227.3 720 239.5C780 251.7 840 290.3 870 309.7L900 329L900 451L870 451C840 451 780 451 720 451C660 451 600 451 540 451C480 451 420 451 360 451C300 451 240 451 180 451C120 451 60 451 30 451L0 451Z" fill="#ffc0d9"></path><path d="M0 376L30 359.7C60 343.3 120 310.7 180 306.5C240 302.3 300 326.7 360 327.8C420 329 480 307 540 305.8C600 304.7 660 324.3 720 324C780 323.7 840 303.3 870 293.2L900 283L900 451L870 451C840 451 780 451 720 451C660 451 600 451 540 451C480 451 420 451 360 451C300 451 240 451 180 451C120 451 60 451 30 451L0 451Z" fill="#dec2f4"></path><path d="M0 341L30 339.7C60 338.3 120 335.7 180 345.3C240 355 300 377 360 378.5C420 380 480 361 540 356.7C600 352.3 660 362.7 720 363.7C780 364.7 840 356.3 870 352.2L900 348L900 451L870 451C840 451 780 451 720 451C660 451 600 451 540 451C480 451 420 451 360 451C300 451 240 451 180 451C120 451 60 451 30 451L0 451Z" fill="#a7caff"></path></svg>